
  <svg xmlns="http://www.w3.org/2000/svg" width="124.428" height="90.027">
    <defs>
      <clipPath id="a">
        <path data-name="Clip 2" d="M0 0h124.428v90.027H0z" transform="translate(0 .693)" fill="none"/>
      </clipPath>
    </defs>
    <g data-name="Group 14">
      <g data-name="Group 13">
        <path data-name="Clip 2" d="M0 0h124.428v90.027H0z" fill="none"/>
        <g data-name="Group 13" clip-path="url(#a)" transform="translate(0 -.693)">
          <path data-name="Stroke 1" d="M18.72 89.474h104.26V67.653H18.72z" fill="none" stroke="#fff" stroke-miterlimit="10" stroke-width="2.88"/>
          <path data-name="Fill 3" d="M1.44 7.126h17.188V1.292l5.606-.6v6.434h6.25v4.825h-6.3v9.788c0 2.16 1.194 3.218 2.941 3.218a6.405 6.405 0 002.711-.69l1.564 4.78a12.5 12.5 0 01-4.641.965c-4.917.184-8.135-2.619-8.135-8.272v-9.789H0" fill="#fff"/>
          <path data-name="Fill 4" d="M42.477 30.334a12.67 12.67 0 01-9.154-3.32 11.981 11.981 0 01-3.3-8.766 13.16 13.16 0 01.847-4.757 10.8 10.8 0 012.416-3.757 12.038 12.038 0 018.777-3.343c3.729 0 6.75 1.153 8.737 3.334a10.38 10.38 0 012.323 4.424 18.146 18.146 0 01.387 6.259H35.814a5.047 5.047 0 002.033 3.463 7.84 7.84 0 004.722 1.361c1.951 0 4.74-.741 6.066-2.114l3.588 3.539a13.854 13.854 0 01-9.746 3.677zm-.23-18.98a7.169 7.169 0 00-4 1.1 5.7 5.7 0 00-2.343 3.312h12.225c-.35-2.804-2.494-4.412-5.882-4.412z" fill="#fff"/>
          <path data-name="Fill 5" d="M64.514 30.429a11.5 11.5 0 01-8.275-3.055c-2.15-2.114-3.286-5.221-3.286-8.988a11.8 11.8 0 013.388-8.842 11.8 11.8 0 018.312-3.015h.11a9.5 9.5 0 014.263.994 6.933 6.933 0 012.952 2.682l.185-3.124h5.377v22.656h-5.287l-.275-3.308a6.776 6.776 0 01-3.211 2.981 10.273 10.273 0 01-4.141 1.019zm.755-18.888a6.758 6.758 0 00-4.75 1.8 6.81 6.81 0 00-1.958 5.044 6.878 6.878 0 001.958 5.067 6.723 6.723 0 004.75 1.827 6.3 6.3 0 004.963-2.15 7.235 7.235 0 001.654-4.723 7.235 7.235 0 00-1.654-4.723 6.3 6.3 0 00-4.963-2.145z" fill="#fff"/>
          <path data-name="Fill 6" d="M93.713 29.737V17.604c0-2.987-1.562-5.7-4.641-5.7-3.033 0-4.825 2.712-4.825 5.7v12.133h-5.608V7.034h5.193l.414 2.758c1.193-2.298 3.814-3.125 5.974-3.125a6.788 6.788 0 016.71 4.228 8.2 8.2 0 017.583-4.137c6.434 0 9.6 3.952 9.6 10.753v12.226h-5.602V17.512c0-2.987-1.241-5.514-4.274-5.514s-4.918 2.62-4.918 5.607v12.132z" fill="#fff"/>
          <path data-name="Fill 7" d="M24.902 60.616h-5.607V39.063a7.575 7.575 0 002.8.743 7.617 7.617 0 002.8-.743v21.552zm-2.8-22.17a3.156 3.156 0 01-3.313-3.275 3.156 3.156 0 013.309-3.274 3.156 3.156 0 013.309 3.274 3.156 3.156 0 01-3.309 3.275z" fill="#f37652"/>
          <path data-name="Fill 8" d="M43.007 60.615V48.758c0-3.447-1.884-6.066-5.469-6.066-3.451-.001-5.79 2.899-5.79 6.342v11.581h-5.561V37.913h5.009l.368 3.078c2.3-2.252 4.6-3.4 7.445-3.4 5.332 0 9.6 4 9.6 11.122v11.9z" fill="#f37652"/>
          <path data-name="Fill 9" d="M64.605 43.98a7.642 7.642 0 00-5.607-2.022c-2.666 0-4.136.828-4.136 2.252 0 1.47 1.331 2.3 4.227 2.482 4.273.275 9.7 1.241 9.7 7.261 0 4-3.264 7.444-9.743 7.444-3.584 0-7.169-.6-10.477-4.044l2.756-4c1.608 1.792 5.286 3.125 7.813 3.171 2.114.045 4.09-1.057 4.09-2.712 0-1.562-1.287-2.205-4.5-2.39-4.279-.319-9.381-1.882-9.381-7.029 0-5.239 5.42-7.077 9.56-7.077 3.538 0 6.2.689 8.823 2.987z" fill="#f37652"/>
          <path data-name="Fill 10" d="M74.346 60.616h-5.607V39.063a6.037 6.037 0 002.8.77 6.041 6.041 0 002.8-.77v21.552zm-2.8-22.17a3.156 3.156 0 01-3.313-3.275 3.156 3.156 0 013.309-3.274 3.156 3.156 0 013.309 3.274 3.156 3.156 0 01-3.309 3.275z" fill="#f37652"/>
          <path data-name="Fill 11" d="M86.384 61.119a13.1 13.1 0 01-4.635-.8 10.616 10.616 0 01-3.7-2.331 11.827 11.827 0 01-3.338-8.723c0-3.717 1.136-6.78 3.286-8.858a11.57 11.57 0 018.249-3 10.843 10.843 0 014.119.936 7.071 7.071 0 013.326 2.696v-19.22h5.606v38.8h-5.239l-.367-3.125a8.3 8.3 0 01-7.307 3.625zm.367-18.475a6.424 6.424 0 00-4.561 1.775 6.609 6.609 0 00-1.872 4.843 6.76 6.76 0 001.872 4.814 6.35 6.35 0 004.561 1.85 6.641 6.641 0 100-13.281z" fill="#f37652"/>
          <path data-name="Fill 12" d="M112.484 61.213a12.669 12.669 0 01-9.153-3.32 11.981 11.981 0 01-3.3-8.766 13.161 13.161 0 01.847-4.757 10.8 10.8 0 012.415-3.757 12.038 12.038 0 018.778-3.343c3.728 0 6.749 1.153 8.736 3.334a10.38 10.38 0 012.324 4.424 18.146 18.146 0 01.387 6.259h-17.696a5.047 5.047 0 002.033 3.463 7.84 7.84 0 004.722 1.361c1.951 0 4.74-.741 6.065-2.114l3.589 3.539a13.851 13.851 0 01-9.747 3.677zm-.229-18.98a7.17 7.17 0 00-4 1.1 5.7 5.7 0 00-2.343 3.312h12.225c-.351-2.804-2.494-4.412-5.882-4.412z" fill="#f37652"/>
        </g>
      </g>
      <text transform="translate(28.8 81.709)" fill="#fff" font-size="14.969" font-family="NexaBold, Nexa Bold" letter-spacing="-.018em">
        <tspan x="0" y="0">P</tspan><tspan y="0" letter-spacing=".003em">ro</tspan><tspan y="0" letter-spacing="-.008em">d</tspan><tspan y="0" letter-spacing=".003em">uct</tspan><tspan y="0" letter-spacing=".014em">i</tspan><tspan y="0" letter-spacing=".003em">ons</tspan>
      </text>
    </g>
  </svg>
